<?xml version="1.0" encoding="UTF-8" standalone="no"?>
<svg width="124px" height="123px" viewBox="0 0 124 123" version="1.1" xmlns="http://www.w3.org/2000/svg" xmlns:xlink="http://www.w3.org/1999/xlink">
    <!-- Generator: Sketch 41.2 (35397) - http://www.bohemiancoding.com/sketch -->
    <title>Group 29</title>
    <desc>Created with Sketch.</desc>
    <defs>
        <filter x="-50%" y="-50%" width="200%" height="200%" filterUnits="objectBoundingBox" id="filter-1">
            <feOffset dx="0" dy="2" in="SourceAlpha" result="shadowOffsetOuter1"></feOffset>
            <feGaussianBlur stdDeviation="2" in="shadowOffsetOuter1" result="shadowBlurOuter1"></feGaussianBlur>
            <feColorMatrix values="0 0 0 0 0   0 0 0 0 0   0 0 0 0 0  0 0 0 0.5 0" type="matrix" in="shadowBlurOuter1" result="shadowMatrixOuter1"></feColorMatrix>
            <feMerge>
                <feMergeNode in="shadowMatrixOuter1"></feMergeNode>
                <feMergeNode in="SourceGraphic"></feMergeNode>
            </feMerge>
        </filter>
    </defs>
    <g id="Page-1" stroke="none" stroke-width="1" fill="none" fill-rule="evenodd">
        <g id="Creerhacer---Rediseño-2016" transform="translate(-789.000000, -2075.000000)">
            <g id="Group-14" transform="translate(181.000000, 2069.000000)">
                <g id="Group-26" transform="translate(64.000000, 8.000000)">
                    <g id="Group-22" transform="translate(521.235572, 0.000000)">
                        <g id="Group-20" filter="url(#filter-1)" transform="translate(27.291391, 0.000000)">
                            <g id="Group-29">
                                <ellipse id="Oval" fill="#D00155" cx="57.5818354" cy="57.4457831" rx="57.5818354" ry="57.4457831"></ellipse>
                                <path d="M36.3674465,68.9401757 L33.3686542,77.9160793 C33.2112176,78.3731024 33.2936844,78.874257 33.5710727,79.2639608 C33.855958,79.6551606 34.3057768,79.8855422 34.7930806,79.8855422 L79.7674683,79.8855422 C80.254772,79.8855422 80.7045909,79.6551606 80.9894761,79.2639608 C81.2668644,78.874257 81.3493312,78.3731024 81.1918946,77.9160793 L78.1931023,68.9401757 C78.0356657,68.4726807 77.6608167,68.1114006 77.1810099,67.9752661 L66.6927338,64.9832982 C66.3253817,64.8800753 65.9430357,64.9167269 65.6056716,65.0835291 L57.2840229,69.2371285 L48.9548773,65.0835291 C48.6175131,64.9167269 48.2351671,64.8800753 47.867815,64.9832982 L37.3720419,67.9752661 C36.8997322,68.1114006 36.5248831,68.4726807 36.3674465,68.9401757 L36.3674465,68.9401757 Z M48.1377063,68.0201456 L56.6092946,72.2477962 C57.0291256,72.4587299 57.5314233,72.4587299 57.9512542,72.2477962 L66.4228425,68.0201456 L75.5991469,70.6351255 L77.6908046,76.8935743 L36.8697442,76.8935743 L38.9614019,70.6351255 L48.1377063,68.0201456 L48.1377063,68.0201456 Z M57.2840229,66.4216867 C63.7839052,66.4216867 69.2791922,59.9134086 69.2791922,52.2098394 C69.2791922,44.5062701 63.7839052,37.997992 57.2840229,37.997992 C50.7766436,37.997992 45.2888537,44.5062701 45.2888537,52.2098394 C45.2888537,59.9134086 50.7766436,66.4216867 57.2840229,66.4216867 L57.2840229,66.4216867 Z M57.2840229,40.9899598 C62.1570604,40.9899598 66.2803998,46.1279167 66.2803998,52.2098394 C66.2803998,58.291762 62.1570604,63.4297189 57.2840229,63.4297189 C52.4034884,63.4297189 48.287646,58.291762 48.287646,52.2098394 C48.287646,46.1279167 52.4034884,40.9899598 57.2840229,40.9899598 L57.2840229,40.9899598 Z M79.7674683,39.4939759 L76.7761729,39.4939759 L76.7761729,36.502008 C76.7761729,35.6762249 76.1014447,35.0060241 75.2767768,35.0060241 C74.4446119,35.0060241 73.7773806,35.6762249 73.7773806,36.502008 L73.7773806,39.4939759 L70.7785883,39.4939759 C69.9464234,39.4939759 69.2791922,40.1641767 69.2791922,40.9899598 C69.2791922,41.816491 69.9464234,42.4859438 70.7785883,42.4859438 L73.7773806,42.4859438 L73.7773806,45.4779116 C73.7773806,46.3044428 74.4446119,46.9738956 75.2767768,46.9738956 C76.1014447,46.9738956 76.7761729,46.3044428 76.7761729,45.4779116 L76.7761729,42.4859438 L79.7674683,42.4859438 C80.5996331,42.4859438 81.2743614,41.816491 81.2743614,40.9899598 C81.2743614,40.1641767 80.5996331,39.4939759 79.7674683,39.4939759 L79.7674683,39.4939759 Z" id="59" fill="#FFFFFF"></path>
                            </g>
                        </g>
                    </g>
                </g>
            </g>
        </g>
    </g>
</svg>