<?xml version="1.0" encoding="UTF-8" standalone="no"?>
<svg width="122px" height="121px" viewBox="0 0 122 121" version="1.1" xmlns="http://www.w3.org/2000/svg" xmlns:xlink="http://www.w3.org/1999/xlink">
    <!-- Generator: Sketch 41.2 (35397) - http://www.bohemiancoding.com/sketch -->
    <title>Group 20</title>
    <desc>Created with Sketch.</desc>
    <defs>
        <filter x="-50%" y="-50%" width="200%" height="200%" filterUnits="objectBoundingBox" id="filter-1">
            <feOffset dx="0" dy="1" in="SourceAlpha" result="shadowOffsetOuter1"></feOffset>
            <feGaussianBlur stdDeviation="1.5" in="shadowOffsetOuter1" result="shadowBlurOuter1"></feGaussianBlur>
            <feColorMatrix values="0 0 0 0 0   0 0 0 0 0   0 0 0 0 0  0 0 0 0.5 0" type="matrix" in="shadowBlurOuter1" result="shadowMatrixOuter1"></feColorMatrix>
            <feMerge>
                <feMergeNode in="shadowMatrixOuter1"></feMergeNode>
                <feMergeNode in="SourceGraphic"></feMergeNode>
            </feMerge>
        </filter>
    </defs>
    <g id="Page-1" stroke="none" stroke-width="1" fill="none" fill-rule="evenodd">
        <g id="Creerhacer---Rediseño-2016" transform="translate(-502.000000, -2075.000000)">
            <g id="Group-14" transform="translate(181.000000, 2069.000000)">
                <g id="Group-26" transform="translate(64.000000, 8.000000)">
                    <g id="Group-18" transform="translate(260.617786, 0.000000)">
                        <g id="Group-24">
                            <g id="Group-20" filter="url(#filter-1)">
                                <ellipse id="Oval" fill="#D00155" cx="57.5818354" cy="57.4457831" rx="57.5818354" ry="57.4457831"></ellipse>
                                <path d="M37.9005879,78.1834007 L63.2047979,78.1834007 C64.7554267,78.1834007 66.0164549,76.9220538 66.0164549,75.3647483 L66.0164549,47.1782241 C66.0164549,46.0225766 65.425304,44.5921105 64.6106264,43.7747013 L58.1634969,37.3129407 C57.3488193,36.4955315 55.9219034,35.9036145 54.7698269,35.9036145 L37.9005879,35.9036145 C36.3499591,35.9036145 35.0889309,37.1649614 35.0889309,38.7222669 L35.0889309,75.3647483 C35.0889309,76.9220538 36.3499591,78.1834007 37.9005879,78.1834007 L37.9005879,78.1834007 Z M37.9005879,38.7222669 L54.7698269,38.7222669 L54.7698269,44.3595717 C54.7698269,45.9168772 56.031558,47.1782241 57.5814839,47.1782241 L63.2047979,47.1782241 L63.2047979,75.3647483 L37.9005879,75.3647483 L37.9005879,38.7222669 L37.9005879,38.7222669 Z M74.4514259,38.7222669 L77.2630828,38.7222669 L77.2630828,71.1367697 C77.2630828,71.6934535 77.0297153,72.6799819 76.7822895,73.1732461 L75.8565514,75.0335567 L74.9322192,73.1732461 C74.6847934,72.6799819 74.4514259,71.6934535 74.4514259,71.1367697 L74.4514259,38.7222669 L74.4514259,38.7222669 Z M58.9873124,66.9087911 L42.1180734,66.9087911 C41.3413532,66.9087911 40.7122449,67.5429879 40.7122449,68.3181173 C40.7122449,69.1002933 41.3413532,69.7274435 42.1180734,69.7274435 L58.9873124,69.7274435 C59.7640327,69.7274435 60.3931409,69.1002933 60.3931409,68.3181173 C60.3931409,67.5429879 59.7640327,66.9087911 58.9873124,66.9087911 L58.9873124,66.9087911 Z M58.9873124,61.2714862 L42.1180734,61.2714862 C41.3413532,61.2714862 40.7122449,61.905683 40.7122449,62.6808124 C40.7122449,63.4629885 41.3413532,64.0901386 42.1180734,64.0901386 L58.9873124,64.0901386 C59.7640327,64.0901386 60.3931409,63.4629885 60.3931409,62.6808124 C60.3931409,61.905683 59.7640327,61.2714862 58.9873124,61.2714862 L58.9873124,61.2714862 Z M58.9873124,55.6341814 L42.1180734,55.6341814 C41.3413532,55.6341814 40.7122449,56.2683782 40.7122449,57.0435076 C40.7122449,57.8256836 41.3413532,58.4528338 42.1180734,58.4528338 L58.9873124,58.4528338 C59.7640327,58.4528338 60.3931409,57.8256836 60.3931409,57.0435076 C60.3931409,56.2683782 59.7640327,55.6341814 58.9873124,55.6341814 L58.9873124,55.6341814 Z M58.9873124,49.9968765 L42.1180734,49.9968765 C41.3413532,49.9968765 40.7122449,50.6310733 40.7122449,51.4062028 C40.7122449,52.1883788 41.3413532,52.815529 42.1180734,52.815529 L58.9873124,52.815529 C59.7640327,52.815529 60.3931409,52.1883788 60.3931409,51.4062028 C60.3931409,50.6310733 59.7640327,49.9968765 58.9873124,49.9968765 L58.9873124,49.9968765 Z M72.417192,74.434593 L73.9706325,77.5562506 C74.3825403,78.3807064 75.0699904,78.8528307 75.8572543,78.8528307 C76.6438154,78.8528307 77.3319684,78.3807064 77.7431733,77.5562506 L79.2973167,74.434593 C79.7408556,73.5467175 80.0747398,72.1303447 80.0747398,71.1367697 L80.0747398,38.7222669 C80.0747398,37.1649614 78.8130088,35.9036145 77.2630828,35.9036145 L74.4514259,35.9036145 C72.900797,35.9036145 71.6397689,37.1649614 71.6397689,38.7222669 L70.2339404,38.7222669 C68.6833115,38.7222669 67.4222834,39.9836138 67.4222834,41.5409193 L67.4222834,47.1782241 C67.4222834,47.9604002 68.0520945,48.5875503 68.8281119,48.5875503 C69.6048321,48.5875503 70.2339404,47.9604002 70.2339404,47.1782241 L70.2339404,41.5409193 L71.6397689,41.5409193 L71.6397689,71.1367697 C71.6397689,72.1303447 71.9736531,73.5467175 72.417192,74.434593 L72.417192,74.434593 Z M42.1180734,45.7688979 L49.8494272,45.7688979 C50.6261475,45.7688979 51.2552557,45.1417478 51.2552557,44.3595717 C51.2552557,43.5844423 50.6261475,42.9502455 49.8494272,42.9502455 L42.1180734,42.9502455 C41.3413532,42.9502455 40.7122449,43.5844423 40.7122449,44.3595717 C40.7122449,45.1417478 41.3413532,45.7688979 42.1180734,45.7688979 L42.1180734,45.7688979 Z M61.2169564,44.3595717 L57.5814839,44.3595717 L57.5814839,40.7164635 L61.2169564,44.3595717 L61.2169564,44.3595717 Z" id="85" fill="#FFFFFF"></path>
                            </g>
                        </g>
                    </g>
                </g>
            </g>
        </g>
    </g>
</svg>