<?xml version="1.0" encoding="UTF-8" standalone="no"?>
<svg width="124px" height="123px" viewBox="0 0 124 123" version="1.1" xmlns="http://www.w3.org/2000/svg" xmlns:xlink="http://www.w3.org/1999/xlink">
    <!-- Generator: Sketch 41.2 (35397) - http://www.bohemiancoding.com/sketch -->
    <title>Group 21</title>
    <desc>Created with Sketch.</desc>
    <defs>
        <filter x="-50%" y="-50%" width="200%" height="200%" filterUnits="objectBoundingBox" id="filter-1">
            <feOffset dx="0" dy="2" in="SourceAlpha" result="shadowOffsetOuter1"></feOffset>
            <feGaussianBlur stdDeviation="2" in="shadowOffsetOuter1" result="shadowBlurOuter1"></feGaussianBlur>
            <feColorMatrix values="0 0 0 0 0.323155825   0 0 0 0 0.323155825   0 0 0 0 0.323155825  0 0 0 0.5 0" type="matrix" in="shadowBlurOuter1" result="shadowMatrixOuter1"></feColorMatrix>
            <feMerge>
                <feMergeNode in="shadowMatrixOuter1"></feMergeNode>
                <feMergeNode in="SourceGraphic"></feMergeNode>
            </feMerge>
        </filter>
    </defs>
    <g id="Page-1" stroke="none" stroke-width="1" fill="none" fill-rule="evenodd">
        <g id="Creerhacer---Rediseño-2016" transform="translate(-241.000000, -2075.000000)">
            <g id="Group-14" transform="translate(181.000000, 2069.000000)">
                <g id="Group-26" transform="translate(64.000000, 8.000000)">
                    <g id="Group-25">
                        <g id="Group-21" filter="url(#filter-1)">
                            <ellipse id="Oval" fill="#D00155" cx="57.5818354" cy="57.4457831" rx="57.5818354" ry="57.4457831"></ellipse>
                            <path d="M35.559485,76.3008632 L41.9861725,82.7813109 C42.2874235,83.0891321 42.6971249,83.2592439 43.1220896,83.2592439 L47.9421053,83.2592439 C48.3686767,83.2592439 48.7767713,83.0891321 49.0780223,82.7813109 L65.6146928,66.1103593 L68.1628744,68.6782367 L62.8721038,74.0165054 C62.2446985,74.6483491 62.2446985,75.6690196 62.8721038,76.3008632 C63.5003126,76.9327069 64.5165325,76.9327069 65.1447412,76.3008632 L71.5706255,69.8204156 C72.1988342,69.1885719 72.1988342,68.1679014 71.5706255,67.5360578 L66.7514131,62.675722 C66.1232044,62.0438784 65.1069845,62.0438784 64.4787757,62.675722 L47.2769431,80.01902 L43.7872517,80.01902 L38.9672361,75.1586843 L39.9087458,74.2109188 L41.9861725,76.3008632 C42.2994736,76.6248856 42.7107816,76.7787962 43.1220896,76.7787962 C43.5333976,76.7787962 43.9439023,76.6248856 44.2580066,76.3008632 L65.057981,55.3285145 C66.0107374,55.5715313 67.0004473,55.7173413 68.0247006,55.7173413 C74.6698956,55.7173413 80.0747398,50.2656648 80.0747398,43.566502 C80.0747398,36.8673392 74.6698956,31.4156627 68.0247006,31.4156627 C61.380309,31.4156627 55.9754647,36.8673392 55.9754647,43.566502 C55.9754647,44.6033736 56.1176552,45.5997425 56.3594593,46.5556085 L35.559485,67.5360578 C34.9320796,68.1679014 34.9320796,69.1885719 35.559485,69.8204156 L37.6369117,71.9184605 L35.559485,74.0165054 C34.9320796,74.6483491 34.9320796,75.6690196 35.559485,76.3008632 L35.559485,76.3008632 Z M68.0247006,34.6558865 C72.8985398,34.6558865 76.861396,38.6494623 76.861396,43.566502 C76.861396,48.4835417 72.8985398,52.4771175 68.0247006,52.4771175 C63.1532714,52.4771175 59.1888085,48.4835417 59.1888085,43.566502 C59.1888085,38.6494623 63.1532714,34.6558865 68.0247006,34.6558865 L68.0247006,34.6558865 Z M61.8510639,53.9838216 L57.5821366,58.2852187 L53.4272831,54.0972294 L57.6962103,49.7958323 C58.7196603,51.5131509 60.1471883,52.94695 61.8510639,53.9838216 L61.8510639,53.9838216 Z M51.1554491,56.3896878 L55.3103026,60.5776771 L43.1220896,72.8662259 L38.9672361,68.6782367 L51.1554491,56.3896878 L51.1554491,56.3896878 Z" id="107" fill="#FFFFFF"></path>
                        </g>
                    </g>
                </g>
            </g>
        </g>
    </g>
</svg>