<?xml version="1.0" encoding="UTF-8" standalone="no"?>
<svg width="124px" height="123px" viewBox="0 0 124 123" version="1.1" xmlns="http://www.w3.org/2000/svg" xmlns:xlink="http://www.w3.org/1999/xlink">
    <!-- Generator: Sketch 41.2 (35397) - http://www.bohemiancoding.com/sketch -->
    <title>Group 27</title>
    <desc>Created with Sketch.</desc>
    <defs>
        <filter x="-50%" y="-50%" width="200%" height="200%" filterUnits="objectBoundingBox" id="filter-1">
            <feOffset dx="0" dy="2" in="SourceAlpha" result="shadowOffsetOuter1"></feOffset>
            <feGaussianBlur stdDeviation="2" in="shadowOffsetOuter1" result="shadowBlurOuter1"></feGaussianBlur>
            <feColorMatrix values="0 0 0 0 0   0 0 0 0 0   0 0 0 0 0  0 0 0 0.5 0" type="matrix" in="shadowBlurOuter1" result="shadowMatrixOuter1"></feColorMatrix>
            <feMerge>
                <feMergeNode in="shadowMatrixOuter1"></feMergeNode>
                <feMergeNode in="SourceGraphic"></feMergeNode>
            </feMerge>
        </filter>
    </defs>
    <g id="Page-1" stroke="none" stroke-width="1" fill="none" fill-rule="evenodd">
        <g id="Creerhacer---Rediseño-2016" transform="translate(-1076.000000, -2075.000000)">
            <g id="Group-14" transform="translate(181.000000, 2069.000000)">
                <g id="Group-26" transform="translate(64.000000, 8.000000)">
                    <g id="Group-23" transform="translate(834.936613, 0.000000)">
                        <g id="Group-20" filter="url(#filter-1)" transform="translate(0.299905, 0.000000)">
                            <g id="Group-27">
                                <ellipse id="Oval" fill="#D00155" cx="57.5818354" cy="57.4457831" rx="57.5818354" ry="57.4457831"></ellipse>
                                <path d="M47.5195213,79.9034944 C51.3971279,79.9034944 54.5518146,76.7534551 54.5518146,72.8878167 L54.5518146,52.9773235 L71.4286154,49.3712651 L71.4286154,63.0798993 C70.0221567,62.1959239 68.7936151,61.6627324 67.2092394,61.6627324 C63.3323361,61.6627324 60.1776493,64.8127717 60.1776493,68.6784101 C60.1776493,72.5440485 63.3316329,75.6940878 67.2092394,75.6940878 C71.0875492,75.6940878 74.2415327,72.5440485 74.2415327,68.6784101 L74.2415327,47.6243614 L74.2415327,47.6173457 L74.2415327,36.4062928 C74.2415327,35.9853521 74.0502543,35.5784428 73.7197366,35.3188628 C73.3892188,35.052267 72.9553263,34.9470318 72.5411242,35.0382356 L52.8507029,39.2476422 C52.2016222,39.3809401 51.7388973,39.9562257 51.7388973,40.6156994 L51.7388973,67.2893059 C50.3324387,66.4053305 49.103897,65.872139 47.5195213,65.872139 C43.6419148,65.872139 40.487228,69.0221783 40.487228,72.8878167 C40.487228,76.7534551 43.6419148,79.9034944 47.5195213,79.9034944 L47.5195213,79.9034944 Z M67.2099426,72.8878167 C64.8829568,72.8878167 62.9905666,71.0005994 62.9905666,68.6784101 C62.9905666,66.3562208 64.8829568,64.4690035 67.2099426,64.4690035 C69.5369285,64.4690035 71.4293186,66.3562208 71.4293186,68.6784101 C71.4293186,71.0005994 69.5369285,72.8878167 67.2099426,72.8878167 L67.2099426,72.8878167 Z M71.4286154,38.1461809 L71.4286154,46.4948373 L54.5518146,50.1079113 L54.5518146,41.7522392 L71.4286154,38.1461809 L71.4286154,38.1461809 Z M47.5195213,68.6784101 C49.8465072,68.6784101 51.7388973,70.5656274 51.7388973,72.8878167 C51.7388973,75.210006 49.8465072,77.0972233 47.5195213,77.0972233 C45.1932387,77.0972233 43.3001453,75.210006 43.3001453,72.8878167 C43.3001453,70.5656274 45.1932387,68.6784101 47.5195213,68.6784101 L47.5195213,68.6784101 Z" id="101" fill="#FFFFFF"></path>
                            </g>
                        </g>
                    </g>
                </g>
            </g>
        </g>
    </g>
</svg>